<svg xmlns="http://www.w3.org/2000/svg" xmlns:xlink="http://www.w3.org/1999/xlink" width="128" zoomAndPan="magnify" viewBox="0 0 96 95.999999" height="128" preserveAspectRatio="xMidYMid meet" version="1.0"><path fill="#4a3fc8" d="M 48.007812 96.007812 C 21.535156 96.007812 0 74.476562 0 48.007812 C 0 21.535156 21.535156 0 48.007812 0 C 74.476562 0 96.011719 21.535156 96.011719 48.007812 C 96.011719 74.476562 74.476562 96.007812 48.007812 96.007812 Z M 48.007812 4.753906 C 24.15625 4.753906 4.753906 24.15625 4.753906 48.007812 C 4.753906 71.855469 24.15625 91.253906 48.007812 91.253906 C 71.855469 91.253906 91.257812 71.855469 91.257812 48.007812 C 91.257812 24.15625 71.855469 4.753906 48.007812 4.753906 Z M 48.007812 4.753906 " fill-opacity="1" fill-rule="nonzero"/><path fill="#4a3fc8" d="M 74.277344 25.261719 C 60.695312 39.402344 47.109375 53.542969 33.527344 67.683594 C 34.578125 67.683594 35.628906 67.683594 36.675781 67.683594 C 31.695312 63.074219 26.714844 58.464844 21.730469 53.855469 C 19.625 51.90625 16.464844 55.050781 18.582031 57.007812 C 23.5625 61.617188 28.542969 66.226562 33.527344 70.835938 C 34.402344 71.644531 35.8125 71.734375 36.675781 70.835938 C 50.261719 56.695312 63.84375 42.554688 77.429688 28.414062 C 79.417969 26.34375 76.269531 23.1875 74.277344 25.261719 Z M 74.277344 25.261719 " fill-opacity="1" fill-rule="nonzero"/></svg>