<svg xmlns="http://www.w3.org/2000/svg" xmlns:xlink="http://www.w3.org/1999/xlink" width="128" zoomAndPan="magnify" viewBox="0 0 96 95.999999" height="128" preserveAspectRatio="xMidYMid meet" version="1.0"><defs><clipPath id="id1"><path d="M 1 13.441406 L 94 13.441406 L 94 82.441406 L 1 82.441406 Z M 1 13.441406 " clip-rule="nonzero"/></clipPath></defs><g clip-path="url(#id1)"><path fill="#ffffff" d="M 79.742188 19.160156 C 73.871094 16.511719 67.570312 14.5625 60.984375 13.445312 C 60.867188 13.421875 60.746094 13.476562 60.683594 13.585938 C 59.875 15 58.976562 16.847656 58.347656 18.296875 C 51.265625 17.257812 44.21875 17.257812 37.28125 18.296875 C 36.652344 16.8125 35.722656 15 34.910156 13.585938 C 34.847656 13.480469 34.726562 13.425781 34.605469 13.445312 C 28.023438 14.558594 21.726562 16.507812 15.847656 19.160156 C 15.796875 19.179688 15.753906 19.21875 15.726562 19.265625 C 3.777344 36.796875 0.503906 53.898438 2.109375 70.789062 C 2.117188 70.871094 2.164062 70.949219 2.230469 71 C 10.113281 76.6875 17.75 80.140625 25.242188 82.425781 C 25.363281 82.464844 25.488281 82.421875 25.566406 82.324219 C 27.339844 79.945312 28.917969 77.4375 30.273438 74.800781 C 30.351562 74.648438 30.277344 74.464844 30.113281 74.402344 C 27.605469 73.46875 25.21875 72.328125 22.925781 71.035156 C 22.742188 70.933594 22.730469 70.679688 22.894531 70.554688 C 23.378906 70.199219 23.863281 69.828125 24.324219 69.457031 C 24.40625 69.386719 24.523438 69.375 24.621094 69.417969 C 39.703125 76.179688 56.03125 76.179688 70.933594 69.417969 C 71.035156 69.371094 71.148438 69.382812 71.238281 69.453125 C 71.699219 69.828125 72.179688 70.199219 72.667969 70.554688 C 72.835938 70.679688 72.824219 70.933594 72.640625 71.035156 C 70.347656 72.355469 67.960938 73.46875 65.449219 74.398438 C 65.285156 74.460938 65.214844 74.648438 65.292969 74.800781 C 66.679688 77.433594 68.257812 79.941406 70 82.320312 C 70.070312 82.421875 70.203125 82.464844 70.320312 82.425781 C 77.851562 80.140625 85.488281 76.6875 93.371094 71 C 93.4375 70.949219 93.480469 70.875 93.488281 70.792969 C 95.410156 51.265625 90.269531 34.304688 79.863281 19.265625 C 79.839844 19.21875 79.796875 19.179688 79.742188 19.160156 Z M 32.527344 60.503906 C 27.984375 60.503906 24.242188 56.410156 24.242188 51.378906 C 24.242188 46.351562 27.914062 42.257812 32.527344 42.257812 C 37.175781 42.257812 40.878906 46.386719 40.808594 51.378906 C 40.808594 56.410156 37.136719 60.503906 32.527344 60.503906 Z M 63.148438 60.503906 C 58.605469 60.503906 54.867188 56.410156 54.867188 51.378906 C 54.867188 46.351562 58.535156 42.257812 63.148438 42.257812 C 67.796875 42.257812 71.5 46.386719 71.429688 51.378906 C 71.429688 56.410156 67.796875 60.503906 63.148438 60.503906 Z M 63.148438 60.503906 " fill-opacity="1" fill-rule="nonzero"/></g></svg>