<svg xmlns="http://www.w3.org/2000/svg" xmlns:xlink="http://www.w3.org/1999/xlink" width="128" zoomAndPan="magnify" viewBox="0 0 96 95.999999" height="128" preserveAspectRatio="xMidYMid meet" version="1.0"><path fill="#1877f2" d="M 96 48 C 96 21.492188 74.507812 0 48 0 C 21.492188 0 0 21.492188 0 48 C 0 71.957031 17.554688 91.816406 40.5 95.417969 L 40.5 61.875 L 28.3125 61.875 L 28.3125 48 L 40.5 48 L 40.5 37.425781 C 40.5 25.394531 47.664062 18.75 58.628906 18.75 C 63.882812 18.75 69.375 19.6875 69.375 19.6875 L 69.375 31.5 L 63.320312 31.5 C 57.359375 31.5 55.5 35.199219 55.5 38.996094 L 55.5 48 L 68.8125 48 L 66.683594 61.875 L 55.5 61.875 L 55.5 95.417969 C 78.445312 91.816406 96 71.957031 96 48 " fill-opacity="1" fill-rule="nonzero"/><path fill="#ffffff" d="M 66.683594 61.875 L 68.8125 48 L 55.5 48 L 55.5 38.996094 C 55.5 35.199219 57.359375 31.5 63.320312 31.5 L 69.375 31.5 L 69.375 19.6875 C 69.375 19.6875 63.882812 18.75 58.628906 18.75 C 47.664062 18.75 40.5 25.394531 40.5 37.425781 L 40.5 48 L 28.3125 48 L 28.3125 61.875 L 40.5 61.875 L 40.5 95.417969 C 42.945312 95.800781 45.449219 96 48 96 C 50.550781 96 53.054688 95.800781 55.5 95.417969 L 55.5 61.875 L 66.683594 61.875 " fill-opacity="1" fill-rule="nonzero"/></svg>