<svg xmlns="http://www.w3.org/2000/svg" xmlns:xlink="http://www.w3.org/1999/xlink" width="128" zoomAndPan="magnify" viewBox="0 0 96 95.999999" height="128" preserveAspectRatio="xMidYMid meet" version="1.0"><defs><clipPath id="id1"><path d="M 1.394531 19 L 34 19 L 34 77 L 1.394531 77 Z M 1.394531 19 " clip-rule="nonzero"/></clipPath><clipPath id="id2"><path d="M 93.234375 39.335938 L 48.9375 39.335938 L 48.9375 57.746094 L 74.433594 57.746094 C 72.058594 69.4375 62.117188 76.152344 48.9375 76.152344 C 33.378906 76.152344 20.84375 63.589844 20.84375 48 C 20.84375 32.40625 33.378906 19.847656 48.9375 19.847656 C 55.636719 19.847656 61.683594 22.230469 66.4375 26.128906 L 80.269531 12.269531 C 71.839844 4.90625 61.039062 0.359375 48.9375 0.359375 C 22.574219 0.359375 1.394531 21.582031 1.394531 48 C 1.394531 74.417969 22.574219 95.640625 48.9375 95.640625 C 72.707031 95.640625 94.316406 78.316406 94.316406 48 C 94.316406 45.183594 93.882812 42.152344 93.234375 39.335938 Z M 93.234375 39.335938 " clip-rule="nonzero"/></clipPath><clipPath id="id3"><path d="M 1.394531 0 L 94.316406 0 L 94.316406 48 L 1.394531 48 Z M 1.394531 0 " clip-rule="nonzero"/></clipPath><clipPath id="id4"><path d="M 93.234375 39.335938 L 48.9375 39.335938 L 48.9375 57.746094 L 74.433594 57.746094 C 72.058594 69.4375 62.117188 76.152344 48.9375 76.152344 C 33.378906 76.152344 20.84375 63.589844 20.84375 48 C 20.84375 32.40625 33.378906 19.847656 48.9375 19.847656 C 55.636719 19.847656 61.683594 22.230469 66.4375 26.128906 L 80.269531 12.269531 C 71.839844 4.90625 61.039062 0.359375 48.9375 0.359375 C 22.574219 0.359375 1.394531 21.582031 1.394531 48 C 1.394531 74.417969 22.574219 95.640625 48.9375 95.640625 C 72.707031 95.640625 94.316406 78.316406 94.316406 48 C 94.316406 45.183594 93.882812 42.152344 93.234375 39.335938 Z M 93.234375 39.335938 " clip-rule="nonzero"/></clipPath><clipPath id="id5"><path d="M 1.394531 0 L 94.316406 0 L 94.316406 95.640625 L 1.394531 95.640625 Z M 1.394531 0 " clip-rule="nonzero"/></clipPath><clipPath id="id6"><path d="M 93.234375 39.335938 L 48.9375 39.335938 L 48.9375 57.746094 L 74.433594 57.746094 C 72.058594 69.4375 62.117188 76.152344 48.9375 76.152344 C 33.378906 76.152344 20.84375 63.589844 20.84375 48 C 20.84375 32.40625 33.378906 19.847656 48.9375 19.847656 C 55.636719 19.847656 61.683594 22.230469 66.4375 26.128906 L 80.269531 12.269531 C 71.839844 4.90625 61.039062 0.359375 48.9375 0.359375 C 22.574219 0.359375 1.394531 21.582031 1.394531 48 C 1.394531 74.417969 22.574219 95.640625 48.9375 95.640625 C 72.707031 95.640625 94.316406 78.316406 94.316406 48 C 94.316406 45.183594 93.882812 42.152344 93.234375 39.335938 Z M 93.234375 39.335938 " clip-rule="nonzero"/></clipPath><clipPath id="id7"><path d="M 25 19 L 94.316406 19 L 94.316406 95.640625 L 25 95.640625 Z M 25 19 " clip-rule="nonzero"/></clipPath><clipPath id="id8"><path d="M 93.234375 39.335938 L 48.9375 39.335938 L 48.9375 57.746094 L 74.433594 57.746094 C 72.058594 69.4375 62.117188 76.152344 48.9375 76.152344 C 33.378906 76.152344 20.84375 63.589844 20.84375 48 C 20.84375 32.40625 33.378906 19.847656 48.9375 19.847656 C 55.636719 19.847656 61.683594 22.230469 66.4375 26.128906 L 80.269531 12.269531 C 71.839844 4.90625 61.039062 0.359375 48.9375 0.359375 C 22.574219 0.359375 1.394531 21.582031 1.394531 48 C 1.394531 74.417969 22.574219 95.640625 48.9375 95.640625 C 72.707031 95.640625 94.316406 78.316406 94.316406 48 C 94.316406 45.183594 93.882812 42.152344 93.234375 39.335938 Z M 93.234375 39.335938 " clip-rule="nonzero"/></clipPath></defs><g clip-path="url(#id1)"><g clip-path="url(#id2)"><path fill="#fbbc05" d="M -2.925781 76.152344 L -2.925781 19.847656 L 33.808594 48 Z M -2.925781 76.152344 " fill-opacity="1" fill-rule="nonzero"/></g></g><g clip-path="url(#id3)"><g clip-path="url(#id4)"><path fill="#ea4335" d="M -2.925781 19.847656 L 33.808594 48 L 48.9375 34.789062 L 100.796875 26.34375 L 100.796875 -3.972656 L -2.925781 -3.972656 Z M -2.925781 19.847656 " fill-opacity="1" fill-rule="nonzero"/></g></g><g clip-path="url(#id5)"><g clip-path="url(#id6)"><path fill="#34a853" d="M -2.925781 76.152344 L 61.902344 26.34375 L 78.972656 28.511719 L 100.796875 -3.972656 L 100.796875 99.972656 L -2.925781 99.972656 Z M -2.925781 76.152344 " fill-opacity="1" fill-rule="nonzero"/></g></g><g clip-path="url(#id7)"><g clip-path="url(#id8)"><path fill="#4285f4" d="M 100.796875 99.972656 L 33.808594 48 L 25.167969 41.503906 L 100.796875 19.847656 Z M 100.796875 99.972656 " fill-opacity="1" fill-rule="nonzero"/></g></g></svg>