<svg xmlns="http://www.w3.org/2000/svg" xmlns:xlink="http://www.w3.org/1999/xlink" width="128" zoomAndPan="magnify" viewBox="0 0 96 95.999999" height="128" preserveAspectRatio="xMidYMid meet" version="1.0"><defs><clipPath id="id1"><path d="M 1.859375 0 L 26 0 L 26 25 L 1.859375 25 Z M 1.859375 0 " clip-rule="nonzero"/></clipPath><clipPath id="id2"><path d="M 33 28 L 94.109375 28 L 94.109375 96 L 33 96 Z M 33 28 " clip-rule="nonzero"/></clipPath></defs><path fill="#ffffff" d="M 3.335938 96 L 24.4375 96 L 24.4375 30.261719 L 3.335938 30.261719 Z M 3.335938 96 " fill-opacity="1" fill-rule="nonzero"/><g clip-path="url(#id1)"><path fill="#ffffff" d="M 13.886719 0 C 7.261719 0 1.871094 5.390625 1.871094 12.019531 C 1.871094 18.644531 7.261719 24.039062 13.886719 24.039062 C 20.511719 24.039062 25.902344 18.644531 25.902344 12.019531 C 25.902344 5.390625 20.511719 0 13.886719 0 Z M 13.886719 0 " fill-opacity="1" fill-rule="nonzero"/></g><g clip-path="url(#id2)"><path fill="#ffffff" d="M 94.089844 50.109375 C 93.8125 37.855469 83.785156 28.257812 71.265625 28.257812 C 64.332031 28.257812 57.894531 31.332031 53.578125 36.59375 L 53.578125 30.261719 L 33.511719 30.261719 L 33.511719 96 L 54.613281 96 L 54.613281 58 C 54.613281 52.9375 58.734375 48.820312 63.792969 48.820312 C 68.855469 48.820312 72.976562 52.9375 72.976562 58 L 72.996094 96 L 94.097656 96 Z M 94.089844 50.109375 " fill-opacity="1" fill-rule="nonzero"/></g></svg>