<svg xmlns="http://www.w3.org/2000/svg" xmlns:xlink="http://www.w3.org/1999/xlink" width="128" zoomAndPan="magnify" viewBox="0 0 96 95.999999" height="128" preserveAspectRatio="xMidYMid meet" version="1.0"><defs><clipPath id="id1"><path d="M 0 10 L 96 10 L 96 88.277344 L 0 88.277344 Z M 0 10 " clip-rule="nonzero"/></clipPath></defs><g clip-path="url(#id1)"><path fill="#ffffff" d="M 86.082031 29.59375 C 86.140625 30.441406 86.140625 31.289062 86.140625 32.144531 C 86.140625 58.210938 66.375 88.273438 30.230469 88.273438 L 30.230469 88.257812 C 19.554688 88.273438 9.101562 85.207031 0.113281 79.414062 C 1.664062 79.601562 3.226562 79.695312 4.789062 79.699219 C 13.636719 79.707031 22.234375 76.726562 29.195312 71.238281 C 20.785156 71.078125 13.410156 65.574219 10.835938 57.539062 C 13.78125 58.109375 16.816406 57.992188 19.707031 57.199219 C 10.539062 55.339844 3.945312 47.253906 3.945312 37.863281 C 3.945312 37.773438 3.945312 37.695312 3.945312 37.613281 C 6.675781 39.140625 9.734375 39.988281 12.863281 40.082031 C 4.230469 34.289062 1.570312 22.761719 6.78125 13.742188 C 16.757812 26.066406 31.476562 33.558594 47.277344 34.351562 C 45.695312 27.5 47.859375 20.320312 52.964844 15.503906 C 60.878906 8.035156 73.324219 8.417969 80.765625 16.359375 C 85.164062 15.488281 89.382812 13.867188 93.242188 11.570312 C 91.773438 16.140625 88.707031 20.015625 84.605469 22.480469 C 88.5 22.019531 92.304688 20.972656 95.890625 19.375 C 93.25 23.34375 89.925781 26.800781 86.082031 29.59375 Z M 86.082031 29.59375 " fill-opacity="1" fill-rule="nonzero"/></g></svg>